<svg xmlns="http://www.w3.org/2000/svg" viewBox="0 0 512 512" role="img" aria-labelledby="title desc">
  <title id="title">Albaheth brand mark</title>
  <desc id="desc">A minimalist green Arabic-inspired legal technology mark.</desc>
  <rect width="512" height="512" rx="112" fill="#0B4B2A"/>
  <path d="M174 335c0-87 47-159 122-190v56c-42 25-67 72-67 126 0 29 8 54 24 76h-57c-14-20-22-43-22-68Zm116-214h54v199c0 50-25 86-75 86h-6v-51h4c16 0 23-12 23-36V121Zm84 43h53v162c0 25-5 47-17 66-12 18-31 31-57 37l-15-49c25-8 36-26 36-55V164Z" fill="#FFFFFF"/>
  <path d="M247 423l22-22 22 22-22 22-22-22Z" fill="#FFFFFF"/>
</svg>
