<svg xmlns="http://www.w3.org/2000/svg" width="400" height="400" viewBox="0 0 400 400">
<title>Arabic logo — vector recreation</title>
<desc>Rounded green square and traced white calligraphy. All artwork is editable vector geometry.</desc>
<g id="background"><rect width="400" height="400" rx="80" fill="#147A4D"/></g>
<g id="calligraphy"><path xmlns="http://www.w3.org/2000/svg" d="M0 0 C3.987 1.478 5.073 3.439 6.875 7.207 C7.126 7.728 7.377 8.25 7.636 8.787 C8.166 9.894 8.691 11.005 9.209 12.118 C9.983 13.776 10.779 15.422 11.578 17.068 C22.304 39.494 23.879 62.787 16.625 86.625 C16.428 87.276 16.231 87.927 16.029 88.598 C13.356 96.768 8.482 103.087 0.816 107.16 C-9.171 111.473 -20.138 113.676 -31 113 C-31 112.01 -31 111.02 -31 110 C-30.741 109.897 -30.741 109.897 -29.43 109.377 C-10.574 101.829 2.769 95.058 11.812 75.816 C17.662 61.942 14.281 49.334 8.875 35.875 C6.392 29.783 6.392 29.783 5 27 C4.67 34.26 4.34 41.52 4 49 C3.34 49.165 3.34 49.165 0 50 C-0.46 45.54 -0.905 41.078 -1.337 36.615 C-1.485 35.103 -1.637 33.591 -1.794 32.08 C-4.334 7.467 -4.334 7.467 0 0 Z " fill="#FFFFFF" transform="translate(308,143)" />

<path xmlns="http://www.w3.org/2000/svg" d="M0 0 C4.487 0.577 6.406 3.028 9.195 6.367 C19.134 20.867 22.548 39.349 19.719 56.484 C18.128 64.877 13.917 71.863 8 78 C4.99 79.954 2.682 80.248 -0.875 80.188 C-1.313 80.18 -1.313 80.18 -3.531 80.145 C-6 80 -6 80 -9.375 79.375 C-12 79 -12 79 -13.859 79.953 C-18.064 82.009 -23.401 81.887 -27.809 80.383 C-34.323 76.559 -37.529 68.588 -39.688 61.688 C-39.92 60.96 -40.153 60.233 -40.393 59.484 C-41.281 56.662 -42.14 53.831 -43 51 C-43.42 49.641 -43.84 48.283 -44.26 46.925 C-45.441 43.093 -46.596 39.254 -47.737 35.411 C-48.2 33.859 -48.669 32.31 -49.144 30.763 C-51.88 21.825 -53.963 14.353 -52 5 C-50.096 5.254 -50.096 5.254 -48 6 C-47.073 7.696 -47.073 7.696 -46.464 9.93 C-46.226 10.766 -45.989 11.602 -45.744 12.463 C-45.503 13.376 -45.261 14.289 -45.012 15.23 C-44.745 16.172 -44.479 17.114 -44.205 18.085 C-43.349 21.115 -42.516 24.15 -41.688 27.188 C-35.465 49.911 -35.465 49.911 -31.457 58.238 C-31.199 58.793 -30.942 59.348 -30.676 59.92 C-28.512 64.08 -26.221 65.364 -22 67 C-19 67.188 -19 67.188 -16 66 C-13.178 62.988 -10.846 59.692 -9 56 C-8.01 56 -7.02 56 -6 56 C-4.396 60.813 -4.667 65.185 -6 70 C2.168 67.466 6.258 62.957 11 56 C11.384 55.473 11.768 54.946 12.164 54.402 C15.027 49.814 14.637 44.157 14 39 C12.277 32.84 9.577 28.366 6 23 C6 28.61 6 34.22 6 40 C4.68 39.67 3.36 39.34 2 39 C-0.325 26.473 -1.682 13.757 -1 1 C-0.67 0.67 -0.34 0.34 0 0 Z " fill="#FFFFFF" transform="translate(280,149)" />

<path xmlns="http://www.w3.org/2000/svg" d="M0 0 C4.226 0.912 4.226 0.912 6.188 2.688 C7.035 6.524 6.699 9.835 4.688 13.188 C4.192 13.683 3.697 14.178 3.188 14.688 C2.136 14.44 1.084 14.192 0 13.938 C-2.932 13.553 -3.719 13.642 -6.5 15 C-10.017 18.272 -11.3 23.259 -12.812 27.688 C-13.802 27.688 -14.793 27.688 -15.812 27.688 C-16.592 18.914 -13.502 11.284 -8 4.5 C-5.454 1.84 -3.764 0.128 0 0 Z " fill="#FFFFFF" transform="translate(131.8125,151.3125)" />

<path xmlns="http://www.w3.org/2000/svg" d="M0 0 C0.871 2.613 1.189 4.307 1.25 7 C1.263 7.34 1.263 7.34 1.328 9.062 C0.889 11.655 0.053 12.381 -2 14 C-3.641 14.884 -5.288 15.758 -6.938 16.625 C-14.584 21.35 -19.047 28.657 -23.798 36.13 C-24.792 37.676 -25.863 39.172 -26.953 40.652 C-28 43 -28 43 -27.453 45.902 C-27.255 46.403 -27.255 46.403 -26.25 48.938 C-24.683 52.985 -23.591 56.693 -23 61 C-23.99 61 -24.98 61 -26 61 C-28.31 56.38 -30.62 51.76 -33 47 C-33.99 47.99 -34.98 48.98 -36 50 C-38.685 52.289 -40.505 53.474 -44.062 53.625 C-48.129 53.27 -51.207 52.019 -54 49 C-55.31 46.692 -56.125 44.527 -57 42 C-59.296 44.811 -61.5 47.661 -63.629 50.602 C-73.582 64.31 -82.481 75.494 -99 81 C-109.764 81.854 -118.591 80.933 -127.188 73.75 C-128.48 72.523 -129.751 71.272 -131 70 C-131.315 69.684 -131.315 69.684 -132.91 68.086 C-140.894 59.577 -143.321 50.779 -143.219 39.328 C-142.651 30.691 -139.128 23.799 -132.938 17.875 C-124.72 11.339 -115.464 10.488 -105.312 10.5 C-96.192 10.345 -87.994 9.592 -79.27 6.938 C-75.815 5.947 -72.561 5.434 -69 5 C-69 5.99 -69 6.98 -69 8 C-70.452 8.782 -71.912 9.55 -73.375 10.312 C-74.187 10.742 -74.999 11.171 -75.836 11.613 C-84.093 15.232 -91.858 16.449 -100.812 16.938 C-112.76 17.781 -125.276 18.739 -134 28 C-137.839 33.197 -137.894 39.811 -137 46 C-134.205 54.534 -128.82 61.185 -120.875 65.375 C-113.804 68.749 -106.572 68.379 -99 67 C-83.364 61.207 -73.674 47.122 -64.223 34.211 C-63.775 33.609 -63.328 33.006 -62.867 32.386 C-62.015 31.236 -61.175 30.078 -60.348 28.911 C-57.506 25.078 -57.506 25.078 -54.715 24.648 C-54.432 24.706 -54.432 24.706 -53 25 C-52.22 27.535 -52.015 29.375 -52.125 32.062 C-52 35 -52 35 -50.875 36.812 C-47.504 38.947 -43.906 39 -40 39 C-40 38.01 -40 37.02 -40 36 C-39.34 35.67 -38.68 35.34 -38 35 C-38.036 34.661 -38.036 34.661 -38.219 32.945 C-40.173 13.348 -40.173 13.348 -36 7 C-32.427 3.65 -29.084 2.892 -24.289 2.754 C-23.374 2.721 -22.459 2.688 -21.516 2.654 C-19.596 2.593 -17.677 2.536 -15.758 2.482 C-10.252 2.278 -5.233 0 0 0 Z M-31.375 18 C-33.452 21.835 -33.381 24.738 -33 29 C-25.681 21.89 -25.681 21.89 -23 18 C-23 17.34 -23 16.68 -23 16 C-26.79 15.569 -28.399 15.494 -31.375 18 Z " fill="#FFFFFF" transform="translate(214,176)" />

<path xmlns="http://www.w3.org/2000/svg" d="M0 0 C3.821 0.531 6.062 1.497 9 4 C8.49 8.389 7.478 11.337 5 15 C2.071 14.372 -0.361 13.414 -3 12 C-3.361 6.953 -2.441 4.272 0 0 Z " fill="#FFFFFF" transform="translate(272,236)" />
</g></svg>